<?xml version="1.0" encoding="utf-8"?>
<!-- Generator: Adobe Illustrator 25.4.1, SVG Export Plug-In . SVG Version: 6.00 Build 0)  -->
<svg version="1.1" id="Layer_1" xmlns="http://www.w3.org/2000/svg" xmlns:xlink="http://www.w3.org/1999/xlink" x="0px" y="0px"
	 viewBox="0 0 100 100" style="enable-background:new 0 0 100 100;" xml:space="preserve">
<g>
	<path d="M25.7,25.7c6.5,2,15.2,3.1,24.3,3.1s17.8-1.1,24.3-3.1c8.1-2.4,12.1-6,12.1-10.4s-4.1-8-12.1-10.4
		c-6.5-2-15.2-3.1-24.3-3.1S32.2,2.8,25.7,4.8c-8.1,2.4-12.1,6-12.1,10.4S17.6,23.2,25.7,25.7z M50,8.8c18.8,0,28.4,4.5,29.4,6.5
		c-0.9,1.9-10.6,6.5-29.4,6.5s-28.4-4.5-29.4-6.5C21.6,13.3,31.2,8.8,50,8.8z"/>
	<path d="M25.7,49.2c6.5,2,15.2,3.1,24.3,3.1s17.8-1.1,24.3-3.1c8.1-2.4,12.1-6,12.1-10.4V27.6c0-2-1.6-3.5-3.5-3.5
		c-2,0-3.5,1.6-3.5,3.5v11.1C78.7,40.6,69,45.2,50,45.2c-19.1,0-28.8-4.7-29.4-6.5V27.6c0-2-1.6-3.5-3.5-3.5s-3.5,1.6-3.5,3.5v11.2
		C13.5,43.2,17.6,46.7,25.7,49.2z"/>
	<path d="M25.7,72.7c6.5,2,15.2,3.1,24.3,3.1s17.8-1.1,24.3-3.1c8.1-2.4,12.1-6,12.1-10.4v-10c0-2-1.6-3.5-3.5-3.5
		c-2,0-3.5,1.6-3.5,3.5l0,9.9C78.8,64,69.1,68.7,50,68.7S21.2,64,20.6,62.3v-10c0-2-1.6-3.5-3.5-3.5s-3.5,1.6-3.5,3.5v10
		C13.5,66.7,17.6,70.3,25.7,72.7z"/>
	<path d="M25.7,96.2c6.5,2,15.2,3.1,24.3,3.1s17.8-1.1,24.3-3.1c8.1-2.4,12.1-6,12.1-10.4v-10c0-2-1.6-3.5-3.5-3.5
		c-2,0-3.5,1.6-3.5,3.5l0,9.9c-0.6,1.9-10.3,6.6-29.4,6.6s-28.8-4.7-29.4-6.5v-10c0-2-1.6-3.5-3.5-3.5s-3.5,1.6-3.5,3.5v10
		C13.5,90.3,17.6,93.8,25.7,96.2z"/>
	<path d="M68.7,33.5c0,2,1.6,3.5,3.6,3.5c2,0,3.5-1.6,3.5-3.6c0-1.9-1.6-3.5-3.6-3.5C70.3,29.9,68.7,31.5,68.7,33.5z"/>
	<path d="M68.9,57c0,2,1.6,3.5,3.6,3.5c1.9,0,3.5-1.6,3.5-3.6c0-2-1.6-3.5-3.6-3.5C70.4,53.5,68.9,55,68.9,57z"/>
	<path d="M68.9,80.5c0,2,1.6,3.5,3.6,3.5c1.9,0,3.5-1.6,3.5-3.6c0-2-1.6-3.5-3.6-3.5C70.4,77,68.9,78.6,68.9,80.5z"/>
</g>
</svg>
