<?xml version="1.0" encoding="utf-8"?><!-- Generator:Adobe Illustrator 25.2.3,SVG Export Plug-In . SVG Version:6 Build 0) --><svg version="1.1" id="Layer_1" xmlns="http://www.w3.org/2000/svg" xmlns:xlink="http://www.w3.org/1999/xlink" x="0px" y="0px" viewBox="0 0 100 100" style="enable-background:new 0 0 100 100;" xml:space="preserve"><style type="text/css">.st7,.st8,.st5,.st3,.st1,.st0,.st2,.st4,.st6,.st9{opacity:0;fill:#999}</style><path class="st0" d="M41.7,54.9c-0.2,0-0.4,0.1-0.5,0.1c-3.9,0.7-4.4,5.7-0.8,7.9c3,1.8,5.9,0.1,6.4-1.9c0.9-3.7-2.6-5.9-3.7-5.9
	C42.4,54.9,41.7,54.9,41.7,54.9z"><animate attributeName="opacity" values="0;1;0" dur="2s" repeatCount="indefinite" begin="1" /></path><path class="st0" d="M42.4,54.7c0.9,0,3.6-0.2,4.5-2.9l0,0c0.7-2.2-0.4-5.6-3.8-6c-4.2-0.1-4.8,3.5-4.8,3.6c-0.6,3.7,2.8,5,2.8,5.1
	C41.1,54.4,41.7,54.6,42.4,54.7z"><animate attributeName="opacity" values="0;1;0" dur="2s" repeatCount="indefinite" begin="1" /></path><path class="st1" d="M33.4,53.4C33.4,53.4,33.4,53.4,33.4,53.4C33.4,53.4,33.4,53.4,33.4,53.4C33.4,53.4,33.4,53.5,33.4,53.4
	C33.4,53.5,33.4,53.5,33.4,53.4C33.4,53.5,33.4,53.5,33.4,53.4C33.4,53.5,33.4,53.5,33.4,53.4C33.4,53.5,33.4,53.5,33.4,53.4
	C33.4,53.5,33.4,53.5,33.4,53.4c2.8,0.3,4-2,4.3-3.4c0.4-1.7-0.1-4.7-3-5.4c0,0,0,0,0,0s0,0,0,0s0,0,0,0c0,0,0,0,0,0s0,0,0,0
	s0,0,0,0s0,0,0,0s0,0,0,0c-0.5-0.1-1.2-0.2-2.1,0.3C29.3,46.6,29.3,52.4,33.4,53.4z"><animate attributeName="opacity" values="0;1;0" dur="2s" repeatCount="indefinite" begin="0.8" /></path><path class="st1" d="M33.8,62.3C33.8,62.3,33.8,62.3,33.8,62.3C33.8,62.3,33.8,62.3,33.8,62.3C33.8,62.3,33.8,62.3,33.8,62.3
	C33.8,62.3,33.8,62.3,33.8,62.3C33.8,62.3,33.8,62.3,33.8,62.3C33.8,62.3,33.8,62.3,33.8,62.3C33.8,62.3,33.8,62.3,33.8,62.3
	C33.8,62.3,33.8,62.3,33.8,62.3c2.7,0.3,3.5-1.8,3.6-3.1c0.1-1.8-1.1-4.8-4-5.5c0,0,0,0,0,0s0,0,0,0s0,0,0,0s0,0,0,0s0,0,0,0
	c0,0,0,0,0,0s0,0,0,0s0,0,0,0c-0.4,0-1.1-0.1-1.8,0.2C28.5,55.3,29.4,61.3,33.8,62.3z"><animate attributeName="opacity" values="0;1;0" dur="2s" repeatCount="indefinite" begin="0.8" /></path><path class="st2" d="M56.3,51.2c0.2-1.7-1-4.4-4.2-4.6c-4,0.1-5.5,4.4-3.3,6.9C51.4,56.3,55.9,54.4,56.3,51.2z"><animate attributeName="opacity" values="0;1;0" dur="2s" repeatCount="indefinite" begin="1.2" /></path><path class="st2" d="M51.8,55.8c-3.8,0.1-5.7,4-3.2,6.5c2.8,2.8,7.4,1,7.6-2.2C56.5,57.9,54.4,55.9,51.8,55.8z"><animate attributeName="opacity" values="0;1;0" dur="2s" repeatCount="indefinite" begin="1.2" /></path><path class="st0" d="M44.6,37.4c-2.9-0.3-5.8,3.5-3.9,6.4c1.8,2.7,6,1.5,6.7-1.9C47.8,40.3,47.1,37.8,44.6,37.4z"><animate attributeName="opacity" values="0;1;0" dur="2s" repeatCount="indefinite" begin="1" /></path><path class="st1" d="M33.1,42.6c1.3,2.5,4.9,1.6,6-1.5l0,0c0.6-1.5,0.4-4.1-1.7-4.6C34.4,36.1,31.7,39.9,33.1,42.6z"><animate attributeName="opacity" values="0;1;0" dur="2s" repeatCount="indefinite" begin="0.8" /></path><path class="st0" d="M46.9,68.2c0.1-1.6-1.6-3.7-4.3-4.1c0,0,0,0,0,0c0,0,0,0,0,0c0,0,0,0,0,0c0,0,0,0,0,0c0,0,0,0,0,0c0,0,0,0,0,0
	c0,0,0,0,0,0c0,0,0,0,0,0c-0.1,0-0.3,0-0.4,0c-2.8,0-4.2,2.7-1.6,5.1C43.3,71.7,46.8,70.8,46.9,68.2z"><animate attributeName="opacity" values="0;1;0" dur="2s" repeatCount="indefinite" begin="1" /></path><path class="st3" d="M27.9,43.4C27.9,43.4,27.9,43.4,27.9,43.4C27.9,43.4,27.9,43.4,27.9,43.4C27.9,43.4,27.9,43.4,27.9,43.4
	C27.9,43.4,27.9,43.4,27.9,43.4C27.9,43.4,27.9,43.4,27.9,43.4C27.9,43.4,27.9,43.4,27.9,43.4C27.9,43.4,27.9,43.4,27.9,43.4
	C27.9,43.4,27.9,43.4,27.9,43.4c-0.1,0-0.2-0.1-0.3-0.1c-2.6-0.5-4.4,4.2-2.5,6.9c1.4,2,3.8,1.1,4.5-1.7
	C30.1,46.9,29.8,44.2,27.9,43.4z"><animate attributeName="opacity" values="0;1;0" dur="2s" repeatCount="indefinite" begin="0.6" /></path><path class="st1" d="M33.7,68.6c2.3,1.7,4.6,1,4.4-1.3C38,66,36.5,63.7,33.9,63c0,0,0,0,0,0l0,0c0,0,0,0,0,0s0,0,0,0s0,0,0,0
	c0,0,0,0,0,0s0,0,0,0s0,0,0,0c-0.3,0-0.6-0.1-1,0C30.5,63.3,31,66.7,33.7,68.6z"><animate attributeName="opacity" values="0;1;0" dur="2s" repeatCount="indefinite" begin="0.8" /></path><path class="st3" d="M26.2,52.4c-0.2,0-0.4-0.1-0.5-0.1c-2.5-0.1-2.5,5,0,7.2c1.7,1.5,3.4,0.6,3.4-2C29.2,55.6,28.1,53.1,26.2,52.4z
	"><animate attributeName="opacity" values="0;1;0" dur="2s" repeatCount="indefinite" begin="0.6" /></path><path class="st2" d="M52.4,38.1c-3.1,0.1-4.8,3.8-2.9,6c2,2.4,6.1,1.1,6.4-2l0,0C56,40.6,55,38.3,52.4,38.1z"><animate attributeName="opacity" values="0;1;0" dur="2s" repeatCount="indefinite" begin="1.2" /></path><path class="st2" d="M51.9,64.9C51.9,64.9,51.9,64.9,51.9,64.9C51.9,64.9,51.9,64.9,51.9,64.9L51.9,64.9
	C51.9,64.9,51.9,64.9,51.9,64.9C51.9,64.9,51.9,64.9,51.9,64.9C51.9,64.9,51.9,64.9,51.9,64.9L51.9,64.9
	C51.9,64.9,51.9,64.9,51.9,64.9c-3,0.1-4.7,2.5-3.1,4.5c2.1,2.6,6.6,1.6,7-1C56,67,54.8,65.1,51.9,64.9z"><animate attributeName="opacity" values="0;1;0" dur="2s" repeatCount="indefinite" begin="1.2" /></path><path class="st3" d="M31.5,35.3c-2.3-0.6-5,3.2-4.1,5.7c0.7,2,3.4,1.2,4.6-1.4C32.8,37.9,32.8,35.7,31.5,35.3z"><animate attributeName="opacity" values="0;1;0" dur="2s" repeatCount="indefinite" begin="0.6" /></path><path class="st3" d="M29.2,67.7C29.2,67.7,29.2,67.7,29.2,67.7C29.2,67.7,29.2,67.7,29.2,67.7C29.2,67.7,29.2,67.7,29.2,67.7
	C29.2,67.7,29.2,67.7,29.2,67.7C29.2,67.7,29.2,67.7,29.2,67.7C29.2,67.7,29.2,67.7,29.2,67.7C29.2,67.7,29.2,67.7,29.2,67.7
	C29.2,67.7,29.2,67.7,29.2,67.7c1.9,0.5,1.4-1.6,1.3-1.9l0,0c-0.3-1.2-1.5-3.4-3.5-4.2c0,0,0,0,0,0c0,0,0,0,0,0c0,0,0,0,0,0
	c0,0,0,0,0,0c0,0,0,0,0,0c0,0,0,0,0,0c0,0,0,0,0,0s0,0,0,0c-0.3-0.1-0.5-0.1-0.8-0.1C24.5,61.9,26.4,66.6,29.2,67.7z"><animate attributeName="opacity" values="0;1;0" dur="2s" repeatCount="indefinite" begin="0.6" /></path><path class="st4" d="M61.4,47C61.4,47,61.4,47,61.4,47C61.4,47,61.4,47,61.4,47C61.4,47,61.4,47,61.4,47C61.4,47,61.4,47,61.4,47
	C61.4,47,61.4,47,61.4,47C61.4,47,61.4,47,61.4,47C61.4,47,61.4,47,61.4,47c-0.5,0-1.4,0.1-2.3,0.9c-2.4,2.1-1.2,6.2,2.6,6.2
	c0,0,0,0,0,0c0,0,0,0,0,0c0,0,0,0,0,0s0,0,0,0s0,0,0,0s0,0,0,0s0,0,0,0s0,0,0,0c2.8-0.3,3.6-2.4,3.6-3.5C65.4,49.1,64.2,47,61.4,47
	C61.4,47,61.4,47,61.4,47z"><animate attributeName="opacity" values="0;1;0" dur="2s" repeatCount="indefinite" begin="1.4" /></path><path class="st4" d="M61.8,56.2c-3.4,0.3-4.8,3.5-3.2,5.6c1.9,2.5,6.5,1.3,7-1.9C65.8,58.4,64.7,56.2,61.8,56.2z"><animate attributeName="opacity" values="0;1;0" dur="2s" repeatCount="indefinite" begin="1.4" /></path><path class="st1" d="M41.7,32.7c0.6-1.2,0.9-3-0.5-3.4c-2.2-0.2-4.9,2.8-4.3,4.8C37.5,35.9,40.4,35.1,41.7,32.7z"><animate attributeName="opacity" values="0;1;0" dur="2s" repeatCount="indefinite" begin="0.8" /></path><path class="st0" d="M48.3,33.5c0.4-1.2,0.2-3.2-1.5-3.4c-2.4-0.1-4.5,3.2-3.4,5.1C44.5,36.8,47.5,36.1,48.3,33.5L48.3,33.5z"><animate attributeName="opacity" values="0;1;0" dur="2s" repeatCount="indefinite" begin="1" /></path><path class="st1" d="M40.1,73.7c-0.4-0.9-1.9-2.5-3.8-2.9c0,0,0,0,0,0c0,0,0,0,0,0c0,0,0,0,0,0c0,0,0,0,0,0c0,0,0,0,0,0c0,0,0,0,0,0
	s0,0,0,0c0,0,0,0,0,0c-0.3,0-0.7-0.1-1,0.1c-1.5,0.7,1,3.7,3.7,4.3c0,0,0,0,0,0s0,0,0,0c0,0,0,0,0,0c0,0,0,0,0,0c0,0,0,0,0,0
	s0,0,0,0c0,0,0,0,0,0c0,0,0,0,0,0C40.7,75.3,40.1,73.7,40.1,73.7z"><animate attributeName="opacity" values="0;1;0" dur="2s" repeatCount="indefinite" begin="0.8" /></path><path class="st0" d="M45.4,76C45.4,76,45.4,76,45.4,76C45.4,76,45.4,76,45.4,76C45.4,76,45.4,76,45.4,76C45.4,76,45.4,76,45.4,76
	C45.4,76,45.4,76,45.4,76C45.4,76,45.4,76,45.4,76C45.4,76,45.4,76,45.4,76C45.4,76,45.4,76,45.4,76c1.8,0.1,2.2-1,2.1-1.5
	c-0.1-0.9-1.4-2.4-3.6-2.7c0,0,0,0,0,0c0,0,0,0,0,0s0,0,0,0s0,0,0,0c0,0,0,0,0,0s0,0,0,0s0,0,0,0c0,0,0,0,0,0
	c-0.3,0-1.1-0.1-1.7,0.4C40.7,73.2,42.7,75.6,45.4,76z"><animate attributeName="opacity" values="0;1;0" dur="2s" repeatCount="indefinite" begin="1" /></path><path class="st5" d="M21.2,48.1c0.7,1,1.9-0.2,2.3-1.9c0.4-1.3,0.4-3.7-0.5-4.5c-0.1,0-0.2-0.1-0.3-0.1
	C21.1,41.4,19.9,46.4,21.2,48.1z"><animate attributeName="opacity" values="0;1;0" dur="2s" repeatCount="indefinite" begin="0.4" /></path><path class="st5" d="M22.9,55.4c0-1.9-0.8-4.2-1.6-4.7c-0.1,0-0.2-0.1-0.3-0.1c-1.5-0.2-1,5.2,0.6,6.7C22.4,58.1,22.9,57,22.9,55.4z
	"><animate attributeName="opacity" values="0;1;0" dur="2s" repeatCount="indefinite" begin="0.4" /></path><path class="st2" d="M52.8,30.6c-2.5,0.1-3.5,3.3-2.1,4.9c1.4,1.5,4.2,0.7,4.4-1.8C55.3,32.2,54.4,30.6,52.8,30.6z"><animate attributeName="opacity" values="0;1;0" dur="2s" repeatCount="indefinite" begin="1.2" /></path><path class="st4" d="M60.5,38.4C60.5,38.4,60.5,38.4,60.5,38.4c-3.1,0.3-3.6,4.1-1.4,5.7c2,1.5,5.2,0.3,5-2.4
	C64,40.4,62.9,38.4,60.5,38.4z"><animate attributeName="opacity" values="0;1;0" dur="2s" repeatCount="indefinite" begin="1.4" /></path><path class="st4" d="M64.6,67.9c0.4-1.4-0.6-2.8-3-2.7c-1.1,0.1-2.1,0.5-2.7,1.1c-1.5,1.5-1,4.1,2.2,4.1c0,0,0,0,0,0c0,0,0,0,0,0
	s0,0,0,0s0,0,0,0s0,0,0,0s0,0,0,0s0,0,0,0c0,0,0,0,0,0C63.4,70.2,64.3,68.8,64.6,67.9L64.6,67.9z"><animate attributeName="opacity" values="0;1;0" dur="2s" repeatCount="indefinite" begin="1.4" /></path><path class="st3" d="M32,32.7c0.2,1.4,2.3,1.1,3.9-1.1l0,0c0.7-0.8,1.7-2.7,0.6-3.2c0,0,0,0,0,0c0,0,0,0,0,0s0,0,0,0l0,0
	c0,0,0,0,0,0c0,0,0,0,0,0c0,0,0,0,0,0l0,0C34.8,28,31.8,30.9,32,32.7z"><animate attributeName="opacity" values="0;1;0" dur="2s" repeatCount="indefinite" begin="0.6" /></path><path class="st2" d="M52.2,72.4c-2.4,0-3.2,1.5-2.3,2.7c1.3,1.7,4.9,1.5,5.3-0.3C55.4,73.5,54,72.5,52.2,72.4z"><animate attributeName="opacity" values="0;1;0" dur="2s" repeatCount="indefinite" begin="1.2" /></path><path class="st5" d="M23.6,39c0.4,1.1,1.8,0.3,2.9-1.4c0.7-1.2,1.3-3.1,0.6-3.8c0,0-0.1,0-0.1-0.1C25.8,33.3,23,37.1,23.6,39z"><animate attributeName="opacity" values="0;1;0" dur="2s" repeatCount="indefinite" begin="0.4" /></path><path class="st3" d="M33.7,72.3c-0.6-0.9-2.1-2.4-3.5-3c0,0,0,0,0,0c0,0,0,0,0,0c0,0,0,0,0,0c0,0,0,0,0,0c0,0,0,0,0,0c0,0,0,0,0,0
	c0,0,0,0,0,0c0,0,0,0,0,0c-0.2-0.1-0.5-0.1-0.7,0c-0.9,0.6,2.6,4,4.1,4.3C34.4,73.8,34.2,73.1,33.7,72.3z"><animate attributeName="opacity" values="0;1;0" dur="2s" repeatCount="indefinite" begin="0.6" /></path><path class="st5" d="M22.3,59.8c-0.1-0.1-0.2-0.1-0.3-0.1c-1,0.1,1.4,5.1,2.7,5.7c0.5,0.2,0.5-0.5,0.1-1.6
	C24.3,62.6,23.2,60.5,22.3,59.8z"><animate attributeName="opacity" values="0;1;0" dur="2s" repeatCount="indefinite" begin="0.4" /></path><path class="st6" d="M74.2,58.8c0.3-1.6-1-3-2.7-2.8c-2.4,0.5-3.8,3-2.6,4.7C70.3,62.6,73.7,61.4,74.2,58.8L74.2,58.8z"><animate attributeName="opacity" values="0;1;0" dur="2s" repeatCount="indefinite" begin="1.6" /></path><path class="st4" d="M59,30.8c-1.8,0.4-2.3,3.3-0.2,4.5c1.7,1.1,3.6-0.2,3.2-2.1c-0.2-1-1.2-2.5-2.7-2.5C59.1,30.8,59,30.8,59,30.8z
	"><animate attributeName="opacity" values="0;1;0" dur="2s" repeatCount="indefinite" begin="1.4" /></path><path class="st0" d="M49.9,26.2c0.3-0.7,0.4-2-0.4-2.2c-1.1-0.1-3.3,2.2-2.6,3.5C47.5,28.5,49.3,27.8,49.9,26.2z"><animate attributeName="opacity" values="0;1;0" dur="2s" repeatCount="indefinite" begin="1" /></path><path class="st1" d="M45.2,25.8L45.2,25.8c0.5-0.6,1.3-2,0.6-2.2c-1.2-0.1-3.8,1.9-3.7,3.2C42.2,27.8,44,27.2,45.2,25.8z"><animate attributeName="opacity" values="0;1;0" dur="2s" repeatCount="indefinite" begin="0.8" /></path><path class="st4" d="M60.7,72.5c-2,0.2-3.2,1.5-2.8,2.5c0.7,1.6,4.1,0.9,4.8-0.6C63.2,73.3,62.2,72.5,60.7,72.5z"><animate attributeName="opacity" values="0;1;0" dur="2s" repeatCount="indefinite" begin="1.4" /></path><path class="st6" d="M70.7,46.8c-2.3,0.3-3.6,3.5-1.5,5.2c2.1,1.7,4.8-0.1,4.6-2.5C73.8,48.3,72.7,46.6,70.7,46.8z"><animate attributeName="opacity" values="0;1;0" dur="2s" repeatCount="indefinite" begin="1.6" /></path><path class="st5" d="M28.9,31c0.1,0.7,1.3,0.4,2.7-1c0.6-0.6,1.9-2.2,1.4-2.7C31.9,26.7,28.7,29.7,28.9,31z"><animate attributeName="opacity" values="0;1;0" dur="2s" repeatCount="indefinite" begin="0.4" /></path><path class="st0" d="M46.2,77.4c-0.6-0.1-0.9,0.1-1,0.2c-0.6,0.5,0.8,1.7,2.6,1.9c0,0,0,0,0,0c0,0,0,0,0,0s0,0,0,0c0,0,0,0,0,0
	s0,0,0,0c0,0,0,0,0,0s0,0,0,0s0,0,0,0c1.2,0.1,1-0.5,0.9-0.7C48.5,78.3,47.6,77.6,46.2,77.4z"><animate attributeName="opacity" values="0;1;0" dur="2s" repeatCount="indefinite" begin="1" /></path><path class="st7" d="M19.4,45.2C19.4,45.2,19.4,45.2,19.4,45.2C19.4,45.2,19.4,45.2,19.4,45.2L19.4,45.2
	C19.4,45.2,19.4,45.2,19.4,45.2C19.4,45.2,19.4,45.2,19.4,45.2C19.4,45.2,19.4,45.2,19.4,45.2C19.4,45.2,19.4,45.2,19.4,45.2
	C19.4,45.2,19.4,45.2,19.4,45.2c0.2,0.3,0.5-0.3,0.8-1.6c0.4-1.4,0.7-3.1,0.5-3.6c0,0,0-0.1-0.1-0.1C20.3,39.7,19.1,43.9,19.4,45.2
	L19.4,45.2z"><animate attributeName="opacity" values="0;1;0" dur="2s" repeatCount="indefinite" begin="0.2" /></path><path class="st1" d="M43.1,78.1c-0.1-0.1-1.3-1.2-2.9-1.5c-0.4-0.1-0.6,0-0.7,0c-0.5,0.4,2.4,2.1,3.7,2.2
	C43.8,78.8,43.3,78.3,43.1,78.1z"><animate attributeName="opacity" values="0;1;0" dur="2s" repeatCount="indefinite" begin="0.8" /></path><path class="st7" d="M19.5,52.6c0-0.7-0.2-2.9-0.4-3.7c0,0,0-0.1,0-0.1c0,0,0,0,0,0c0,0.1,0,0.1,0,0.5c0.1,1.4,0.3,3.2,0.4,4.5
	c0,0.1,0,0.2,0.1,0.4v0v0v0v0v0v0v0v0c0,0,0,0.1,0.1,0.1C19.5,54.3,19.6,54.1,19.5,52.6L19.5,52.6z"><animate attributeName="opacity" values="0;1;0" dur="2s" repeatCount="indefinite" begin="0.2" /></path><path class="st7" d="M28.8,70.5c-0.3-0.3-1.7-2-2.6-2.7c-0.2-0.1-0.2-0.1-0.2-0.1c-0.1,0.4,3.4,4.1,3.7,3.9
	C29.6,71.6,29.6,71.5,28.8,70.5L28.8,70.5z"><animate attributeName="opacity" values="0;1;0" dur="2s" repeatCount="indefinite" begin="0.2" /></path><path class="st6" d="M70.8,64.9C70.8,64.9,70.8,64.9,70.8,64.9C70.8,64.9,70.8,64.9,70.8,64.9C70.8,64.9,70.8,64.9,70.8,64.9
	C70.8,64.9,70.8,64.9,70.8,64.9C70.8,64.9,70.8,64.9,70.8,64.9C70.8,64.9,70.8,64.9,70.8,64.9C70.8,64.9,70.8,64.9,70.8,64.9
	C70.8,64.9,70.8,64.9,70.8,64.9c-1,0.2-1.7,0.6-2.3,1.3c-1.3,1.4-0.8,3.2,1.3,3c0,0,0,0,0,0c0,0,0,0,0,0s0,0,0,0c0,0,0,0,0,0
	c0,0,0,0,0,0s0,0,0,0c0,0,0,0,0,0c0,0,0,0,0,0c1.8-0.3,2.7-1.6,2.9-2.3C73.1,65.9,72.7,64.7,70.8,64.9z"><animate attributeName="opacity" values="0;1;0" dur="2s" repeatCount="indefinite" begin="1.6" /></path><path class="st6" d="M70,43.3C70,43.3,70,43.3,70,43.3C70,43.3,70,43.3,70,43.3C70,43.3,70,43.3,70,43.3C70,43.3,70,43.3,70,43.3
	C70,43.3,70,43.3,70,43.3C70,43.3,70,43.3,70,43.3C70,43.3,70,43.3,70,43.3C70,43.3,70,43.3,70,43.3c1.8-0.4,1.9-1.9,1.7-2.7
	c-0.3-1.4-1.7-2.5-3-2.3c-0.3,0.1-0.7,0.1-1.2,0.6C66.2,40.2,67.2,43.5,70,43.3z"><animate attributeName="opacity" values="0;1;0" dur="2s" repeatCount="indefinite" begin="1.6" /></path><path class="st2" d="M52.2,27.7c0.8,0.8,2.3,0.2,2.4-1.4l0,0c0-0.7-0.3-1.9-1.2-2C52.2,24.4,51.2,26.7,52.2,27.7z"><animate attributeName="opacity" values="0;1;0" dur="2s" repeatCount="indefinite" begin="1.2" /></path><path class="st3" d="M38.5,25.8c0,0.7,1.5,0.2,2.8-0.9c0.6-0.5,1.8-1.7,1.3-2C41.7,22.7,38.5,24.7,38.5,25.8z"><animate attributeName="opacity" values="0;1;0" dur="2s" repeatCount="indefinite" begin="0.6" /></path><path class="st2" d="M52.7,77.8c-1,0-1.9,0.5-1.5,1.1c0.7,1,3.1,1,3.3,0C54.6,78.5,53.9,77.9,52.7,77.8z"><animate attributeName="opacity" values="0;1;0" dur="2s" repeatCount="indefinite" begin="1.2" /></path><path class="st3" d="M38.4,77.1c-0.1-0.1-1.8-1.2-2.9-1.7c-0.1,0-0.3-0.1-0.3,0c-0.1,0.1,0.4,0.6,1.5,1.2c0.8,0.4,2.3,1.2,2.4,1.1
	C39.2,77.7,39.1,77.6,38.4,77.1z"><animate attributeName="opacity" values="0;1;0" dur="2s" repeatCount="indefinite" begin="0.6" /></path><path class="st8" d="M22.2,36.5C22.2,36.5,22.2,36.5,22.2,36.5C22.2,36.5,22.2,36.5,22.2,36.5C22.2,36.5,22.2,36.5,22.2,36.5
	C22.2,36.5,22.2,36.5,22.2,36.5C22.2,36.5,22.2,36.5,22.2,36.5C22.2,36.5,22.2,36.5,22.2,36.5c0.1,0.3,0.8-0.4,1.4-1.3
	c0.6-0.9,1.4-2.4,1.3-2.9c0,0,0,0,0,0s0,0,0,0s0,0,0,0c0,0,0,0,0,0c0,0,0,0,0,0s0,0,0,0l0,0c0,0,0,0,0,0c0,0,0,0,0,0
	C24.6,31.9,22.1,35.2,22.2,36.5C22.2,36.5,22.2,36.5,22.2,36.5C22.2,36.5,22.2,36.5,22.2,36.5z"><animate attributeName="opacity" values="0;1;0" dur="2s" repeatCount="indefinite" begin="0.3" /></path><path class="st7" d="M21.6,61.2c-0.3-0.6-0.6-1.4-0.8-2C21.1,59.8,21.4,60.5,21.6,61.2l0.3,0.6C21.9,61.6,21.8,61.4,21.6,61.2
	L21.6,61.2z"><animate attributeName="opacity" values="0;1;0" dur="2s" repeatCount="indefinite" begin="0.2" /></path><path class="st7" d="M20.7,58.8c-0.1-0.2-0.2-0.4-0.2-0.6C20.5,58.3,20.6,58.6,20.7,58.8z"><animate attributeName="opacity" values="0;1;0" dur="2s" repeatCount="indefinite" begin="0.2" /></path><path class="st6" d="M66.4,34.4c1.4,0.6,2.3-0.5,1.8-1.8c-0.4-1-1.6-1.9-2.5-1.8c0,0-0.1,0-0.1,0C64.2,31.1,64.6,33.6,66.4,34.4z"><animate attributeName="opacity" values="0;1;0" dur="2s" repeatCount="indefinite" begin="1.6" /></path><path class="st4" d="M57.8,27.5c1,0.6,1.8-0.2,1.5-1.3c-0.2-0.8-1.1-1.6-1.7-1.6c0,0-0.1,0-0.1,0C56.6,24.8,56.6,26.8,57.8,27.5z"><animate attributeName="opacity" values="0;1;0" dur="2s" repeatCount="indefinite" begin="1.4" /></path><path class="st6" d="M68.7,72.2c-1.1,0.2-1.8,0.7-2.1,1.1C66,74,65.9,75,67.4,74.9c0,0,0,0,0,0c0,0,0,0,0,0s0,0,0,0s0,0,0,0
	c0,0,0,0,0,0c0,0,0,0,0,0c0,0,0,0,0,0c0,0,0,0,0,0c1.4-0.2,2.2-1.2,2.3-1.3C70.3,72.7,69.9,72.1,68.7,72.2z"><animate attributeName="opacity" values="0;1;0" dur="2s" repeatCount="indefinite" begin="1.6" /></path><path class="st5" d="M36.4,24.4c-0.1,0.4,0.8,0.2,2.2-0.7c0.3-0.2,1.8-1.2,1.6-1.4C39.5,22,36.4,23.7,36.4,24.4z"><animate attributeName="opacity" values="0;1;0" dur="2s" repeatCount="indefinite" begin="0.4" /></path><path class="st4" d="M59.2,77.9c-1.3,0.1-1.9,0.7-1.8,1.1c0.1,0.7,2.2,0.5,2.8-0.3C60.5,78.4,60.4,77.9,59.2,77.9z"><animate attributeName="opacity" values="0;1;0" dur="2s" repeatCount="indefinite" begin="1.4" /></path><path class="st8" d="M27.9,28.9L27.9,28.9C27.9,28.9,27.9,28.9,27.9,28.9C27.9,28.9,27.9,28.9,27.9,28.9L27.9,28.9L27.9,28.9
	C27.9,28.9,27.9,28.9,27.9,28.9c0.2,0.3,1.2-0.6,1.5-0.9c0,0,1.6-1.5,1.6-1.9c0,0,0,0,0,0c-0.1-0.1-1,0.4-1.8,1.1
	C28.5,27.7,27.8,28.5,27.9,28.9C27.9,28.9,27.9,28.9,27.9,28.9C27.9,28.9,27.9,28.9,27.9,28.9z"><animate attributeName="opacity" values="0;1;0" dur="2s" repeatCount="indefinite" begin="0.3" /></path><path class="st9" d="M79.6,55.3c-1.3,0.4-2.1,2.5-1.3,3.5c0.9,1.1,2.5-0.2,2.7-1.8C81.2,56.1,80.7,55.2,79.6,55.3z"><animate attributeName="opacity" values="0;1;0" dur="2s" repeatCount="indefinite" begin="1.8" /></path><path class="st9" d="M78.3,50c1.2,0.8,2.3-0.6,2.2-2.1c-0.1-1-1-2-1.9-1.7C77.2,46.7,77,49.1,78.3,50z"><animate attributeName="opacity" values="0;1;0" dur="2s" repeatCount="indefinite" begin="1.8" /></path><path class="st7" d="M34.8,75.7L34.8,75.7c0.2,0.1,0.4,0.2,0.6,0.3c-0.6-0.4-1.4-0.9-2.1-1.4C33.7,75,34.2,75.3,34.8,75.7z"><animate attributeName="opacity" values="0;1;0" dur="2s" repeatCount="indefinite" begin="0.2" /></path><path class="st0" d="M52.2,20.6c0.2-0.3,0.6-1,0.4-1c-0.4,0-1.8,1.2-1.6,1.7C51,21.6,51.7,21.3,52.2,20.6z"><animate attributeName="opacity" values="0;1;0" dur="2s" repeatCount="indefinite" begin="1" /></path><path class="st1" d="M48.7,20.9c0,0.3,0.6,0.1,1.5-0.6c0.1-0.1,1.2-0.9,1-0.9C50.8,19.4,48.7,20.5,48.7,20.9z"><animate attributeName="opacity" values="0;1;0" dur="2s" repeatCount="indefinite" begin="0.8" /></path><path class="st9" d="M77.7,39.2c0,0-0.6-1.7-1.9-1.4c0,0,0,0,0,0c-1.4,0.5-0.4,2.7,0.5,3.2C76.8,41.2,78.3,41.1,77.7,39.2z"><animate attributeName="opacity" values="0;1;0" dur="2s" repeatCount="indefinite" begin="1.8" /></path><path class="st2" d="M53.8,21.4L53.8,21.4C53.8,21.4,53.8,21.4,53.8,21.4C53.8,21.4,53.8,21.4,53.8,21.4L53.8,21.4
	C53.8,21.4,53.8,21.4,53.8,21.4L53.8,21.4C53.8,21.4,53.8,21.4,53.8,21.4C53.8,21.4,53.8,21.4,53.8,21.4c0.4,0,0.5-0.5,0.5-0.8
	c0-0.2,0-0.7-0.3-0.9c0,0-0.1,0-0.1,0C53.6,20,53.1,21.3,53.8,21.4z"><animate attributeName="opacity" values="0;1;0" dur="2s" repeatCount="indefinite" begin="1.2" /></path><path class="st9" d="M78.4,64.2c-1.5,0.5-1.9,2.1-1.8,2.6c0.2,0.6,1.6,0.4,2.5-1.3C79.2,65.5,79.8,63.9,78.4,64.2z"><animate attributeName="opacity" values="0;1;0" dur="2s" repeatCount="indefinite" begin="1.8" /></path><path class="st3" d="M46.9,20.3c-0.1,0.1,0.1,0.2,1.5-0.4c0,0,1.3-0.6,1.3-0.7c0,0,0,0,0,0C49.4,19.2,47.1,20,46.9,20.3z"><animate attributeName="opacity" values="0;1;0" dur="2s" repeatCount="indefinite" begin="0.6" /></path><path class="st6" d="M63.1,26.7c0.3,0.1,1.2,0.1,0.5-1c0,0-0.7-1.1-1.5-1c0,0-0.1,0-0.1,0C61.4,25,62.3,26.4,63.1,26.7z"><animate attributeName="opacity" values="0;1;0" dur="2s" repeatCount="indefinite" begin="1.6" /></path><path class="st7" d="M23.9,32.5l0.7-1C24.2,32,23.9,32.3,23.9,32.5z"><animate attributeName="opacity" values="0;1;0" dur="2s" repeatCount="indefinite" begin="0.2" /></path><path class="st2" d="M53.3,80.7c-0.6,0-0.6,0.1-0.5,0.2c0.1,0.2,1.2,0.2,1.3,0.1C54,81,54,80.8,53.3,80.7z"><animate attributeName="opacity" values="0;1;0" dur="2s" repeatCount="indefinite" begin="1.2" /></path><path class="st6" d="M65.3,77.6c-1,0.2-1.6,0.8-1.6,1c0,0.3,0.9,0.2,1.9-0.5c0,0,0.1-0.1,0.1-0.1C66,77.7,65.8,77.6,65.3,77.6z"><animate attributeName="opacity" values="0;1;0" dur="2s" repeatCount="indefinite" begin="1.6" /></path><path class="st7" d="M37.2,22.3c1.3-0.7,1.3-0.8,1.3-0.8c-0.1-0.2-2.3,0.9-2.5,1.3C36,22.8,36.4,22.7,37.2,22.3z"><animate attributeName="opacity" values="0;1;0" dur="2s" repeatCount="indefinite" begin="0.2" /></path><path class="st9" d="M75.2,71.6c-0.5,0.1-1,0.5-1.3,1c-0.3,0.5-0.2,0.6,0.2,0.5c0,0,0,0,0,0s0,0,0,0s0,0,0,0c0,0,0,0,0,0
	c0,0,0,0,0,0c0,0,0,0,0,0c0,0,0,0,0,0s0,0,0,0c0.2-0.1,0.7-0.2,1.2-0.9c0,0,0.1-0.1,0.1-0.1C75.5,72,75.8,71.4,75.2,71.6z"><animate attributeName="opacity" values="0;1;0" dur="2s" repeatCount="indefinite" begin="1.8" /></path><path class="st4" d="M55.8,20C55.8,20,55.8,20,55.8,20c-0.2,0.1,0.1,1,0.4,1.1c0.2,0.1,0.3-0.1,0.2-0.5C56.4,20.6,56.1,20,55.8,20z"><animate attributeName="opacity" values="0;1;0" dur="2s" repeatCount="indefinite" begin="1.4" /></path><path class="st7" d="M47.2,19.4c1.2-0.4,1.3-0.4,1.3-0.5l0,0l0,0l0,0l0,0l0,0l0,0l0,0l0,0c-0.2,0-2.3,0.5-2.3,0.7
	C46.3,19.6,46.5,19.6,47.2,19.4L47.2,19.4z"><animate attributeName="opacity" values="0;1;0" dur="2s" repeatCount="indefinite" begin="0.2" /></path><path class="st9" d="M72.6,32.5c0.3,0.1,1.2,0.1,0.5-1.1c0,0-0.6-1-1.4-0.9c0,0-0.1,0-0.1,0C70.9,30.8,71.9,32.3,72.6,32.5z"><animate attributeName="opacity" values="0;1;0" dur="2s" repeatCount="indefinite" begin="1.8" /></path><path class="st4" d="M57.3,80.7c-0.6,0-0.8,0.2-0.8,0.2c0,0.1,0.7,0,0.9-0.1c0.1,0,0.1,0,0.1-0.1C57.7,80.7,57.5,80.7,57.3,80.7z"><animate attributeName="opacity" values="0;1;0" dur="2s" repeatCount="indefinite" begin="1.4" /></path><path class="st7" d="M30.7,25C30.7,25,30.7,25,30.7,25c-0.1,0-1.6,1.2-1.6,1.4c0,0,0.2-0.1,0.5-0.4C29.6,25.9,30.5,25.2,30.7,25z"><animate attributeName="opacity" values="0;1;0" dur="2s" repeatCount="indefinite" begin="0.2" /></path></svg>