<svg height='100px' width='100px'  fill="#000000" xmlns="http://www.w3.org/2000/svg" xmlns:xlink="http://www.w3.org/1999/xlink" version="1.1" x="0px" y="0px" viewBox="0 0 512 512" style="enable-background:new 0 0 512 512;" xml:space="preserve"><g><g><g><path d="M495.27,417.501l-78.227-78.228c-1.876-1.875-4.419-2.929-7.071-2.929s-5.196,1.054-7.071,2.929l-7.301,7.301     l-31.265-31.266c54.689-77.978,47.231-186.571-22.387-256.191c-77.98-77.979-204.862-77.979-282.843,0     c-77.979,77.98-77.979,204.863,0,282.844c38.99,38.989,90.206,58.484,141.421,58.484c40.023,0,80.045-11.906,114.234-35.716     l31.342,31.342l-6.841,6.841c-3.905,3.905-3.905,10.237,0,14.143l78.227,78.228c10.723,10.722,24.808,16.083,38.892,16.083     s28.168-5.361,38.891-16.083c10.389-10.389,16.109-24.2,16.109-38.892S505.658,427.889,495.27,417.501z M73.248,327.819     c-70.182-70.182-70.182-184.377,0-254.559c35.095-35.096,81.179-52.637,127.279-52.637c46.088,0,92.193,17.55,127.279,52.637     c70.183,70.182,70.183,184.377,0,254.559C257.625,398,143.43,398.001,73.248,327.819z M330.701,352.385     c3.849-3.305,7.602-6.779,11.247-10.424c3.49-3.49,6.818-7.082,9.995-10.76l29.515,29.515l-21.213,21.213L330.701,352.385z      M481.128,481.141c-13.646,13.646-35.851,13.646-49.497,0l-71.155-71.156l6.841-6.841l35.355-35.355l7.301-7.301l71.155,71.156     c6.611,6.61,10.252,15.399,10.252,24.748S487.739,474.531,481.128,481.141z"></path><path d="M200.526,50.539c-82.71,0-150,67.29-150,150s67.29,150,150,150s150-67.29,150-150S283.237,50.539,200.526,50.539z      M200.526,330.539c-71.682,0-130-58.317-130-130s58.318-130,130-130s130,58.317,130,130S272.209,330.539,200.526,330.539z"></path><path d="M200.526,169.986c-17.279,0-31.336,14.058-31.336,31.336v66.774c0,17.278,14.058,31.336,31.336,31.336     s31.336-14.058,31.336-31.336v-66.774C231.863,184.043,217.805,169.986,200.526,169.986z M211.863,268.096     c0,6.251-5.085,11.336-11.336,11.336s-11.336-5.085-11.336-11.336v-66.774c0-6.251,5.085-11.336,11.336-11.336     s11.336,5.085,11.336,11.336V268.096z"></path><path d="M201.863,99.986h-2.673c-16.542,0-30,13.458-30,30s13.458,30,30,30h2.673c16.542,0,30-13.458,30-30     S218.405,99.986,201.863,99.986z M201.863,139.986h-2.673c-5.514,0-10-4.486-10-10s4.486-10,10-10h2.673c5.514,0,10,4.486,10,10     S207.377,139.986,201.863,139.986z"></path></g></g></g></svg>