<?xml version="1.0" encoding="utf-8"?>
<!-- Generator: Adobe Illustrator 25.4.1, SVG Export Plug-In . SVG Version: 6.00 Build 0)  -->
<svg version="1.1" id="Layer_1" xmlns="http://www.w3.org/2000/svg" xmlns:xlink="http://www.w3.org/1999/xlink" x="0px" y="0px"
	 viewBox="0 0 100 100" style="enable-background:new 0 0 100 100;" xml:space="preserve">
<path d="M54.8,15.1c3.3,0,5.9-2.7,5.9-5.9s-2.7-5.9-5.9-5.9s-5.9,2.7-5.9,5.9S51.5,15.1,54.8,15.1z M54.8,7.5c0.9,0,1.6,0.7,1.6,1.6
	s-0.7,1.6-1.6,1.6s-1.6-0.7-1.6-1.6S53.9,7.5,54.8,7.5z M37.9,88.3c-3.3,0-5.9,2.7-5.9,5.9c0,3.3,2.7,5.9,5.9,5.9
	c3.3,0,5.9-2.7,5.9-5.9C43.8,91,41.1,88.3,37.9,88.3z M37.9,95.9c-0.9,0-1.6-0.7-1.6-1.6c0-0.9,0.7-1.6,1.6-1.6
	c0.9,0,1.6,0.7,1.6,1.6C39.5,95.2,38.8,95.9,37.9,95.9z M86,20.2c0-1.5,1.2-2.7,2.7-2.7c1.5,0,2.7,1.2,2.7,2.7s-1.2,2.7-2.7,2.7
	C87.3,22.9,86,21.7,86,20.2z M5.5,71.3c-1.5,0-2.7-1.2-2.7-2.7c0-1.5,1.2-2.7,2.7-2.7s2.7,1.2,2.7,2.7C8.2,70.1,7,71.3,5.5,71.3z
	 M96.8,79.2c0,1.5-1.2,2.7-2.7,2.7c-1.5,0-2.7-1.2-2.7-2.7c0-1.5,1.2-2.7,2.7-2.7C95.6,76.5,96.8,77.7,96.8,79.2z M67.2,90
	c0,1.5-1.2,2.7-2.7,2.7c-1.5,0-2.7-1.2-2.7-2.7c0-1.5,1.2-2.7,2.7-2.7C65.9,87.3,67.2,88.5,67.2,90z M23.7,11.8
	c0-1.5,1.2-2.7,2.7-2.7s2.7,1.2,2.7,2.7s-1.2,2.7-2.7,2.7S23.7,13.3,23.7,11.8z M21.2,81.9c0,1.2-1,2.2-2.2,2.2h-3.2v3.2
	c0,1.2-1,2.2-2.2,2.2s-2.2-1-2.2-2.2v-3.2H8.2c-1.2,0-2.2-1-2.2-2.2s1-2.2,2.2-2.2h3.2v-3.2c0-1.2,1-2.2,2.2-2.2s2.2,1,2.2,2.2v3.2
	H19C20.2,79.8,21.2,80.7,21.2,81.9z M64.1,9.2c0-1.2,1-2.2,2.2-2.2h3.2V3.8c0-1.2,1-2.2,2.2-2.2s2.2,1,2.2,2.2v3.2h3.2
	c1.2,0,2.2,1,2.2,2.2s-1,2.2-2.2,2.2h-3.2v3.2c0,1.2-1,2.2-2.2,2.2s-2.2-1-2.2-2.2v-3.2h-3.2C65.1,11.4,64.1,10.4,64.1,9.2z
	 M92.9,90.5c0,1.2-1,2.2-2.2,2.2h-3.2v3.2c0,1.2-1,2.2-2.2,2.2s-2.2-1-2.2-2.2v-3.2H80c-1.2,0-2.2-1-2.2-2.2s1-2.2,2.2-2.2h3.2v-3.2
	c0-1.2,1-2.2,2.2-2.2s2.2,1,2.2,2.2v3.2h3.2C91.9,88.3,92.9,89.3,92.9,90.5z M34.2,73.3c-1.4-0.7-3-1.1-4.6-1.1
	c-2.7,0-5.3-0.8-7.7-2.2c-5.1-3-9.7-6.7-13.8-11l-2-2c-3.5-3.6-5.5-8.4-5.5-13.5V26.8c0-3.3,2.7-6.1,6.1-6.1h26.2
	c1.2,0,2.2,1,2.2,2.2c0,1.2-1,2.2-2.2,2.2H6.8c-1,0-1.7,0.8-1.7,1.7v16.7c0,3.9,1.5,7.6,4.2,10.5l2,2c3.9,4,8.2,7.5,13,10.3
	c1.7,1,3.6,1.5,5.5,1.6c2.3,0,4.4,0.5,6.4,1.5c1.1,0.5,1.5,1.8,1,2.9c-0.4,0.8-1.1,1.2-1.9,1.2C34.9,73.5,34.5,73.4,34.2,73.3z
	 M78.4,75.5c0,2.9-2.4,5.2-5.2,5.2c-2.1,0-4-1.2-4.8-3.1l-1.8-4.2C66.5,73.2,66.3,73,66,73h-5.1c-2.3,0-4.5,0.8-6.3,2.3
	c-0.6,0.5-1.1,1.2-1.5,1.9c-0.3,0.7-0.5,1.6-0.5,2.4c0,1.2-0.5,2.3-1.3,3.2c-0.8,0.8-2,1.3-3.2,1.3c-1.2,0-2.3-0.4-3.1-1.2l-6.3-6.1
	c-0.9-0.8-0.9-2.2-0.1-3.1c0.8-0.9,2.2-0.9,3.1-0.1l6.3,6c0,0,0.2,0,0.2,0c0,0,0-0.1,0-0.1c0-1.4,0.3-2.9,0.9-4.2
	c0.6-1.3,1.5-2.5,2.6-3.4c2.6-2.1,5.8-3.3,9.1-3.3H66c2,0,3.7,1.2,4.5,2.9l1.8,4.2c0.1,0.3,0.5,0.6,0.9,0.6c0.5,0,0.9-0.4,0.9-0.9
	v-0.8c0-2.2-0.7-4.4-1.9-6.3c-0.6-0.8-0.5-1.9,0.2-2.7l5.7-6.2c1.7-1.8,2.6-4.1,2.6-6.6c0-2.8,1.5-5.4,3.9-6.7l3.1-1.8
	c1-0.6,2.4-0.2,2.9,0.8c0.6,1,0.2,2.4-0.8,2.9L86.7,50C85.6,50.6,85,51.7,85,53c0,3.6-1.3,7-3.7,9.6l-4.6,5c1.2,2.2,1.7,4.7,1.7,7.2
	L78.4,75.5L78.4,75.5z M100.1,31.6v6.8c0,2.5-1.4,4.8-3.5,6.1l-1.1,0.7c-0.3,0.2-0.7,0.3-1.1,0.3c-0.8,0-1.5-0.4-1.9-1.1
	c-0.6-1-0.2-2.4,0.8-2.9l1.2-0.7c0.8-0.5,1.3-1.4,1.3-2.3v-6.8l-8.1,5.7c-0.4,0.3-0.8,0.4-1.2,0.4h-2.3c-0.8,0-1.6,0.3-2.2,0.9
	l-4.3,4.7c-1.1,1.2-2.6,1.8-4.2,1.8c-1.9,0-3.6-0.9-4.7-2.5l-0.9-1.4L64.3,40c-1.5-0.5-2.4-1.9-2.4-3.4c0-1.5,1-2.9,2.5-3.4
	c0.9-0.3,1.7-0.6,2.6-0.8c0.6-0.2,0.8-0.6,0.9-0.9c0.1-0.2,0.2-0.7-0.1-1.3c0,0-0.1-0.1-0.1-0.1c-0.2-0.4-0.6-0.6-1.1-0.6h-7.1
	c-0.3,0-0.6-0.1-0.8-0.2L48.4,25h-2.9c-1.2,0-2.2-1-2.2-2.2s1-2.2,2.2-2.2h3.3c0.3,0,0.6,0.1,0.8,0.2L60,25.3h6.7c2,0,3.8,1,4.8,2.7
	c0,0,0.1,0.1,0.1,0.2c0.9,1.5,1,3.3,0.4,4.9c-0.6,1.7-2,2.9-3.6,3.5c-0.2,0.1-0.3,0.1-0.5,0.2l2.1,0.7c0.4,0.2,0.8,0.5,1.1,0.8
	l1.3,2c0.5,0.7,1.5,0.8,2.1,0.2l4.3-4.7c1.4-1.5,3.3-2.4,5.4-2.4h1.6l7.5-5.3c1.3-0.9,3.1-1.1,4.5-0.3
	C99.2,28.5,100.1,30,100.1,31.6z M37.7,24.4c-0.4-0.4-0.6-1-0.6-1.5c0-0.1,0-0.3,0-0.4c0-0.1,0.1-0.3,0.1-0.4
	c0.1-0.1,0.1-0.3,0.2-0.4c0.1-0.1,0.2-0.2,0.3-0.3c0.8-0.8,2.3-0.8,3.1,0c0.1,0.1,0.2,0.2,0.3,0.3c0.1,0.1,0.1,0.2,0.2,0.4
	c0.1,0.1,0.1,0.3,0.1,0.4c0,0.1,0,0.3,0,0.4c0,0.6-0.2,1.1-0.6,1.5c-0.4,0.4-1,0.6-1.5,0.6C38.7,25,38.1,24.8,37.7,24.4z"/>
</svg>
