<?xml version="1.0" encoding="UTF-8"?>
<svg width="128pt" height="128pt" version="1.1" viewBox="0 0 128 128" xmlns="http://www.w3.org/2000/svg">
 <path fill="white" d="m92.672 84.734c6.5273-8.1914 10.113-18.559 10.113-29.055 0-25.855-21.121-46.977-47.105-46.977-25.984 0-46.977 21.121-46.977 46.977 0 25.855 21.121 46.977 46.977 46.977 10.367 0 20.734-3.5859 29.055-10.113l28.289 28.289 8.0625-8.0625zm-36.992 6.7852c-19.586 0-35.586-16-35.586-35.586 0-19.586 16-35.586 35.586-35.586 19.586 0 35.586 16 35.586 35.586 0 19.586-16 35.586-35.586 35.586z"/>
</svg>
